# xmcd
#
# Track frame offsets:
# 150
# 14111
# 25006
# 41403
# 54696
# 69557
# 87345
# 98943
# 112899
# 131897
# 144065
# 157991
# 176910
# 189252
# 203327
# 216905
# 238196
# 253063
# 282086
#
# Disc length: 4164 seconds
#
#
# Revision: 3
# Processed by: cddbd v1.5.1PL0 Copyright (c) Steve Scherf et al.
# Submitted via: FreeRIP 2.93 
#
DISCID=0c104213
DTITLE=Norah Jones - Come Away With Me (Special Edition with Bonuses)
DYEAR=2002
DGENRE=Blues
TTITLE0=Don't Know Why
TTITLE1=Seven Years
TTITLE2=Cold, Cold Heart
TTITLE3=Feelin' the Same Way
TTITLE4=Come Away With Me
TTITLE5=Shoot the Moon
TTITLE6=Turn Me On
TTITLE7=Lonestar
TTITLE8=I've Got to See You Again
TTITLE9=Painter Song
TTITLE10=One Flight Down
TTITLE11=Nightingale
TTITLE12=The Long Day Is Over
TTITLE13=The Nearness of You
TTITLE14=Seven Years (Club Mix)
TTITLE15=The Long Day Is Over (Club Mix)
TTITLE16=Don't Know Why ((Radio Edition)
TTITLE17=Shoot The Moon (Extended Version)
TTITLE18=Data
EXTD=YEAR: 2002
EXTT0=
EXTT1=
EXTT2=
EXTT3=
EXTT4=
EXTT5=
EXTT6=
EXTT7=
EXTT8=
EXTT9=
EXTT10=
EXTT11=
EXTT12=
EXTT13=
EXTT14=
EXTT15=
EXTT16=
EXTT17=
EXTT18=
PLAYORDER=
